<?xml version="1.0" encoding="iso-8859-1"?>
<!-- Generator: Adobe Illustrator 16.0.0, SVG Export Plug-In . SVG Version: 6.00 Build 0)  -->
<!DOCTYPE svg PUBLIC "-//W3C//DTD SVG 1.1//EN" "http://www.w3.org/Graphics/SVG/1.1/DTD/svg11.dtd">
<svg version="1.1" id="Capa_1" xmlns="http://www.w3.org/2000/svg" xmlns:xlink="http://www.w3.org/1999/xlink" x="0px" y="0px"
	 width="55.5px" height="55.5px" viewBox="0 0 55.5 55.5" style="enable-background:new 0 0 55.5 55.5;" xml:space="preserve">
<g>
	<path d="M48.83,8.583H6.67C2.992,8.583,0,11.575,0,15.252v24.996c0,3.677,2.992,6.668,6.67,6.668h42.16
		c3.678,0,6.67-2.991,6.67-6.668V15.252C55.5,11.575,52.508,8.583,48.83,8.583z M6.67,10.583h42.16c2.574,0,4.67,2.095,4.67,4.669H2
		C2,12.679,4.095,10.583,6.67,10.583z M48.83,44.917H6.67c-2.575,0-4.67-2.095-4.67-4.668V22.245h51.5v18.003
		C53.5,42.822,51.404,44.917,48.83,44.917z"/>
</g>
<g>
</g>
<g>
</g>
<g>
</g>
<g>
</g>
<g>
</g>
<g>
</g>
<g>
</g>
<g>
</g>
<g>
</g>
<g>
</g>
<g>
</g>
<g>
</g>
<g>
</g>
<g>
</g>
<g>
</g>
</svg>
